<svg id="Layer_1" data-name="Layer 1" xmlns="http://www.w3.org/2000/svg" viewBox="0 0 330.27 65.14"><defs><style>.cls-1{fill:#fff27b;stroke:#323232;stroke-miterlimit:10;stroke-width:0.5px;}</style></defs><path class="cls-1" d="M141.47,20.85a31.32,31.32,0,0,0-4.65-10.27c-4-5.51-8.52-7.93-13.13-7.93-5.31,0-9,3.13-9,7.7a10.79,10.79,0,0,0,2.58,6.87l5.89,2.58.59-.9a7.82,7.82,0,0,1-2.23-5.2c0-3,2.11-5.15,5.43-5.15,5.39,0,8,4.33,8.4,12.3H2.28l-.55.75L4.39,27H38.45v5.62H19.11l-.54.67L21,38.82c4.69.63,6.87,1.92,6.87,4.14a6.19,6.19,0,0,1-6.25,5.86c-5,0-9.45-4.76-13.59-15.23L4.47,35.38C10.29,49.84,16.85,56.17,24,56.17c5.89,0,9.18-4.3,9.18-8.36,0-2.78-.79-5-2.86-8.6h8.09l-.16,21L44.51,62l.54-.39L44.9,27h13a49.88,49.88,0,0,1,.39,6.48A39.31,39.31,0,0,1,58,38.7c-3.2.4-5.23.86-6.09,1.88a3.45,3.45,0,0,0-.82,2.3c0,1.61,1.21,3.48,3,5.4,2,2.14,3.68,3.24,4.93,3.24a4.16,4.16,0,0,0,3.51-2.15c1.41-2.46,2.07-6,2.07-12.15,0-2.85-.12-6.25-.47-10.27H75.49l-.16,33.2L81.62,62l.55-.39L82,27h36.64v4.72a23.84,23.84,0,0,0-9.76,3.52c-3.48-2.66-5.67-4.1-9.26-4.1-5.16,0-9.49,3.71-9.49,10.19,0,8.21,7.42,16.76,15.39,20.9L106,62,108,55.85c-7.58-2.5-11.52-5.66-11.52-10.74,0-4.49,3.28-8,7.11-8a6.33,6.33,0,0,1,2.77.63,15.68,15.68,0,0,0-2.89,6.72L108.61,48h.55c1.56-5.47,3.2-8,9.45-9.72l-.11,21.91,6.21,1.8.55-.39L125.1,27h10.19l-.15,33.2L141.43,62l.54-.39L141.82,27h6.79l.55-.75-2.65-5.35Z"/><path class="cls-1" d="M328.54,26.2l-2.66-5.35H162l-.54.75L164.12,27h34.06v5.62H178.85l-.55.67,2.46,5.58c4.69.63,6.88,1.92,6.88,4.14a6.19,6.19,0,0,1-6.25,5.86c-5,0-9.46-4.76-13.6-15.23l-3.59,1.79c5.82,14.46,12.38,20.79,19.57,20.79,5.9,0,9.18-4.3,9.18-8.36,0-2.78-.78-5-2.85-8.6h8.08l-.15,21,6.21,1.8.55-.39L204.63,27h10.2l-.16,33.2L221,62l.55-.39L221.35,27h29.76v8.71a83.64,83.64,0,0,0-11.52-.94c-10.27,0-10.86,5.2-10.86,6.21,0,1.64,1.1,3.67,3.28,6s4,3.44,5.35,3.44a3.4,3.4,0,0,0,3.4-4,36,36,0,0,0-.35-4.3,22.48,22.48,0,0,1,5.7-.58c1.84,0,3.21,0,5,.19L251,60.19l6.21,1.8.55-.39L257.56,27h29.88v5.43a40,40,0,0,0-9.84-1.45c-8.13,0-12,4.3-12,9.45,0,2.15.82,4.77,3.24,7.86,3.24,4.06,7,5.86,11.21,5.86a14.43,14.43,0,0,0,7.38-2l-.15,8.13L293.5,62l.54-.39L293.89,27h18.75a12.15,12.15,0,0,1,.31,3c0,2.89-.59,4.64-1.44,5.78-1.22-.12-3-.16-4.85-.16A4,4,0,0,0,303,37.18a4.15,4.15,0,0,0-.66,2.19,10.16,10.16,0,0,0,1.48,4c3.71,6.88,10,13.17,17.93,19.1h.59l3-6.64c-6.05-2.89-11.17-6.05-14.41-9.57,5-2.77,8.51-6.72,8.51-14.53A25.4,25.4,0,0,0,319,27h9Zm-41,14.93a4.54,4.54,0,0,1-2,3.86,12.17,12.17,0,0,1-7.77,2.74c-4,0-5.75-1.6-5.75-3.71,0-3.75,3.32-6.88,9.69-6.88a26.71,26.71,0,0,1,5.86.63Z"/><rect class="cls-1" x="48.31" y="8.5" width="7.57" height="7.57" transform="translate(6.57 40.44) rotate(-45)"/></svg>